<?xml version="1.0" encoding="utf-8"?>
<!-- Generator: Adobe Illustrator 26.0.2, SVG Export Plug-In . SVG Version: 6.00 Build 0)  -->
<svg version="1.1" id="レイヤー_1" xmlns="http://www.w3.org/2000/svg" xmlns:xlink="http://www.w3.org/1999/xlink" x="0px"
	 y="0px" viewBox="0 0 252.5 42.4" style="enable-background:new 0 0 252.5 42.4;" xml:space="preserve">
<g>
	<polygon points="0.1,42.2 1.3,42.2 1.3,37.3 7.4,37.3 7.4,36.2 1.3,36.2 1.3,31.6 8.1,31.6 8.1,30.6 0.1,30.6 	"/>
	<path d="M20.9,38.1c0.7-0.3,1.3-0.8,1.6-1.4c0.4-0.6,0.6-1.3,0.6-2.1c0-0.9-0.2-1.6-0.6-2.2c-0.4-0.6-0.9-1.1-1.6-1.4
		c-0.7-0.3-1.6-0.5-2.5-0.5H14v11.7h1.2v-3.7h3.1c0.3,0,0.6,0,0.9-0.1l2.7,3.8h1.3l-2.9-4C20.6,38.2,20.7,38.1,20.9,38.1z
		 M18.3,37.5h-3.1v-5.9h3.1c1.2,0,2,0.3,2.7,0.8c0.6,0.5,0.9,1.2,0.9,2.2c0,0.9-0.3,1.6-0.9,2.1C20.3,37.2,19.5,37.5,18.3,37.5z"/>
	<polygon points="30.6,36.8 36.6,36.8 36.6,35.8 30.6,35.8 30.6,31.6 37.3,31.6 37.3,30.6 29.3,30.6 29.3,42.2 37.6,42.2 37.6,41.2 
		30.6,41.2 	"/>
	<path d="M45.1,36.8h6v-1h-6c0-2.2,0-4.1,0-4.1h6.8v-1.1h-8v11.7h8.2v-1.1h-7C45.1,41.2,45.1,39.1,45.1,36.8z"/>
	<polygon points="59.5,30.6 58.3,30.6 58.3,42.2 58.3,42.2 66.1,42.2 66.1,41.2 59.5,41.2 	"/>
	<path d="M74.9,30.6l-5.3,11.7h1.3l1.4-3.1h6.5l1.4,3.1h1.3l-5.3-11.7H74.9z M72.7,38.1l2.8-6.3l2.8,6.3H72.7z"/>
	<polygon points="95.3,40 87.7,30.6 86.7,30.6 86.7,42.2 88,42.2 88,32.8 95.5,42.2 96.5,42.2 96.5,30.6 95.3,30.6 	"/>
	<path d="M105.2,32.9c0.5-0.4,1-0.8,1.6-1s1.2-0.4,2-0.4c0.7,0,1.3,0.1,1.9,0.3c0.6,0.2,1.1,0.6,1.6,1.1l0.8-0.8
		c-0.5-0.6-1.1-1-1.9-1.3c-0.7-0.3-1.5-0.4-2.4-0.4c-0.9,0-1.7,0.2-2.4,0.4c-0.7,0.3-1.4,0.7-1.9,1.2c-0.5,0.5-1,1.2-1.3,1.9
		c-0.3,0.7-0.5,1.5-0.5,2.4c0,0.9,0.2,1.6,0.5,2.4c0.3,0.7,0.7,1.3,1.3,1.9c0.5,0.5,1.2,0.9,1.9,1.2c0.7,0.3,1.5,0.4,2.4,0.4
		c0.9,0,1.7-0.1,2.4-0.5c0.7-0.3,1.4-0.7,1.9-1.3l-0.8-0.8c-0.5,0.5-1,0.8-1.6,1.1c-0.6,0.2-1.2,0.3-1.9,0.3c-0.7,0-1.4-0.1-2-0.4
		s-1.1-0.6-1.6-1s-0.8-0.9-1-1.5s-0.4-1.2-0.4-1.9c0-0.7,0.1-1.3,0.4-1.9C104.4,33.9,104.8,33.4,105.2,32.9z"/>
	<polygon points="120.1,41.2 120.1,36.8 126.2,36.8 126.2,35.8 120.1,35.8 120.1,31.6 126.9,31.6 126.9,30.6 118.9,30.6 118.9,42.2 
		127.2,42.2 127.2,41.2 120.1,41.2 	"/>
	<path d="M148.6,38.5c0.8-0.3,1.3-0.8,1.8-1.4c0.4-0.6,0.6-1.4,0.6-2.2c0-0.9-0.2-1.6-0.6-2.3c-0.4-0.6-1-1.1-1.8-1.5
		c-0.8-0.3-1.7-0.5-2.7-0.5h-5v11.7v0h2.7V39h2.4c0,0,0.1,0,0.1,0l2.2,3.2h2.9L148.6,38.5C148.5,38.5,148.5,38.5,148.6,38.5z
		 M147.6,33.3c0.4,0.4,0.6,0.9,0.6,1.5c0,0.6-0.2,1.1-0.6,1.5c-0.4,0.4-1,0.5-1.9,0.5h-2.2v-4.1h2.2
		C146.5,32.8,147.2,32.9,147.6,33.3z"/>
	<path d="M166.6,32.1c-0.6-0.5-1.2-1-2-1.3c-0.8-0.3-1.6-0.5-2.5-0.5c-0.9,0-1.8,0.2-2.5,0.5c-0.8,0.3-1.4,0.7-2,1.3
		c-0.6,0.5-1,1.2-1.3,1.9c-0.3,0.7-0.5,1.5-0.5,2.4s0.2,1.7,0.5,2.4c0.3,0.7,0.8,1.4,1.3,1.9c0.6,0.5,1.2,1,2,1.3
		c0.8,0.3,1.6,0.5,2.6,0.5c0.9,0,1.8-0.2,2.5-0.5c0.8-0.3,1.5-0.7,2-1.3c0.6-0.5,1-1.2,1.3-1.9s0.5-1.5,0.5-2.4
		c0-0.9-0.2-1.7-0.5-2.4C167.6,33.2,167.2,32.6,166.6,32.1z M165.4,37.9c-0.2,0.5-0.4,0.9-0.8,1.2c-0.3,0.3-0.7,0.6-1.2,0.8
		s-0.9,0.3-1.4,0.3s-1-0.1-1.5-0.3c-0.5-0.2-0.8-0.4-1.2-0.8c-0.3-0.3-0.6-0.7-0.8-1.2c-0.2-0.5-0.3-1-0.3-1.5
		c0-0.6,0.1-1.1,0.3-1.5c0.2-0.5,0.4-0.8,0.8-1.2c0.3-0.3,0.7-0.6,1.2-0.8s0.9-0.3,1.4-0.3s1,0.1,1.5,0.3c0.5,0.2,0.8,0.4,1.2,0.8
		c0.3,0.3,0.6,0.7,0.8,1.2s0.3,1,0.3,1.5C165.7,36.9,165.6,37.5,165.4,37.9z"/>
	<path d="M177.4,30.6l-5.2,11.7h2.8l1-2.5h5.4l1,2.5h2.8l-5.2-11.7H177.4z M176.9,37.7l1.9-4.5l1.8,4.5H176.9z"/>
	<path d="M198.5,31.3c-1-0.5-2.1-0.7-3.3-0.7h-5.3v11.6h5.3c1.3,0,2.4-0.2,3.3-0.7c1-0.5,1.7-1.2,2.3-2c0.5-0.9,0.8-1.9,0.8-3.1
		c0-1.2-0.3-2.2-0.8-3.1C200.2,32.4,199.5,31.8,198.5,31.3z M198.4,38.3c-0.3,0.5-0.8,1-1.3,1.3c-0.6,0.3-1.2,0.4-2,0.4h-2.5v-7.2
		h2.5c0.8,0,1.4,0.2,2,0.4c0.6,0.3,1,0.7,1.3,1.2c0.3,0.5,0.5,1.2,0.5,1.9C198.9,37.1,198.7,37.8,198.4,38.3z"/>
	<polygon points="217.9,30.6 213.6,37.8 209.2,30.6 207,30.6 207,42.2 209.5,42.2 209.5,35.4 212.9,41 214.1,41 217.6,35.2 
		217.6,42.2 220.1,42.2 220.1,30.6 	"/>
	<path d="M229.9,30.6l-5.2,11.7h2.8l1-2.5h5.4l1,2.5h2.8l-5.2-11.7H229.9z M229.4,37.7l1.9-4.5l1.8,4.5H229.4z"/>
	<path d="M250.1,31.1c-0.8-0.3-1.7-0.5-2.7-0.5h-5v11.7v0h2.7V39h2.4c1,0,1.9-0.2,2.7-0.5c0.8-0.3,1.3-0.8,1.8-1.5
		c0.4-0.6,0.6-1.4,0.6-2.2c0-0.9-0.2-1.6-0.6-2.3C251.4,31.9,250.8,31.4,250.1,31.1z M249.1,36.3c-0.4,0.4-1,0.5-1.9,0.5H245v-4h2.2
		c0.8,0,1.5,0.2,1.9,0.5s0.6,0.9,0.6,1.5C249.7,35.4,249.5,35.9,249.1,36.3z"/>
	<polygon points="17.9,11.3 14.3,0.3 10.9,0.3 7.3,11.2 3.7,0.3 0,0.3 5.1,15.9 9,15.9 12.5,5.3 16,15.9 19.9,15.9 25,0.3 21.5,0.3 
			"/>
	<polygon points="43.9,13 35.4,13 35.4,9.4 42.6,9.4 42.6,6.6 35.4,6.6 35.4,3.2 43.6,3.2 43.6,0.3 31.8,0.3 31.8,15.9 43.9,15.9 	
		"/>
	<path d="M63.9,14.8c1.1-0.8,1.6-1.8,1.6-3.1c0-0.9-0.2-1.7-0.6-2.3c-0.4-0.6-1-1.1-1.8-1.4c-0.1-0.1-0.3-0.1-0.5-0.2
		c0.6-0.3,1.1-0.7,1.5-1.3c0.4-0.6,0.6-1.3,0.6-2.1c0-1.2-0.5-2.2-1.5-2.9c-1-0.8-2.5-1.1-4.4-1.1h-7.6v15.6v0h8.1
		C61.3,15.9,62.9,15.5,63.9,14.8z M58.4,3c0.9,0,1.5,0.2,2,0.5c0.5,0.3,0.7,0.8,0.7,1.4c0,0.6-0.2,1.1-0.7,1.4
		c-0.5,0.3-1.1,0.5-2,0.5h-3.6V3H58.4z M54.8,13.2V9.3H59c0.9,0,1.7,0.2,2.1,0.5c0.5,0.3,0.7,0.8,0.7,1.5c0,0.7-0.2,1.2-0.7,1.5
		c-0.5,0.3-1.2,0.5-2.1,0.5H54.8z"/>
	<path d="M95.1,1.2c-1.3-0.7-2.8-1-4.5-1h-7.1v15.6v0h7.1c1.7,0,3.2-0.3,4.5-1c1.3-0.7,2.3-1.5,3-2.7c0.7-1.2,1.1-2.5,1.1-4.1
		c0-1.6-0.4-3-1.1-4.1C97.4,2.8,96.4,1.9,95.1,1.2z M94.9,10.6c-0.4,0.7-1,1.3-1.8,1.7c-0.8,0.4-1.7,0.6-2.7,0.6h-3.3V3.2h3.3
		c1,0,1.9,0.2,2.7,0.6c0.8,0.4,1.4,1,1.8,1.7c0.4,0.7,0.6,1.6,0.6,2.6C95.6,9.1,95.3,9.9,94.9,10.6z"/>
	<path d="M110,9.4h7.2V6.6H110c0-1.5,0-3.4,0-3.4h8.2V0.3h-11.8v15.6h12.1V13H110C110,13,110,11,110,9.4z"/>
	<path d="M135.8,8c-0.5-0.3-1.1-0.6-1.8-0.8c-0.7-0.2-1.3-0.4-1.9-0.5c-0.6-0.2-1.2-0.3-1.8-0.5c-0.5-0.2-1-0.3-1.3-0.6
		c-0.3-0.2-0.5-0.6-0.5-1c0-0.3,0.1-0.6,0.3-0.9s0.5-0.5,1-0.6c0.5-0.2,1-0.2,1.7-0.2s1.4,0.1,2.1,0.3c0.7,0.2,1.5,0.5,2.2,0.9
		l1.1-2.7c-0.7-0.5-1.6-0.8-2.5-1S132.5,0,131.5,0c-1.5,0-2.7,0.2-3.6,0.7c-1,0.4-1.7,1-2.2,1.8c-0.5,0.7-0.7,1.5-0.7,2.4
		c0,0.8,0.2,1.5,0.5,2c0.3,0.5,0.8,1,1.3,1.3c0.5,0.3,1.1,0.6,1.8,0.8c0.7,0.2,1.3,0.4,1.9,0.5c0.6,0.2,1.2,0.3,1.8,0.5
		c0.5,0.2,1,0.3,1.3,0.6c0.3,0.2,0.5,0.6,0.5,1c0,0.3-0.1,0.6-0.3,0.9c-0.2,0.2-0.5,0.4-1,0.6s-1,0.2-1.7,0.2
		c-0.9,0-1.9-0.2-2.8-0.5c-0.9-0.3-1.7-0.7-2.4-1.2l-1.2,2.7c0.7,0.5,1.6,1,2.8,1.3c1.1,0.3,2.3,0.5,3.6,0.5c1.5,0,2.7-0.2,3.7-0.7
		c1-0.4,1.7-1,2.2-1.8c0.5-0.7,0.7-1.5,0.7-2.4c0-0.8-0.2-1.5-0.5-2C136.7,8.8,136.3,8.3,135.8,8z"/>
	<polygon points="148.1,0.3 144.5,0.3 144.5,15.9 144.5,15.9 148.1,15.9 	"/>
	<path d="M160.4,4.5c0.5-0.4,1-0.8,1.6-1s1.3-0.4,2.1-0.4c0.8,0,1.5,0.1,2.2,0.4c0.7,0.3,1.3,0.7,1.8,1.3l2.3-2.1
		c-0.8-0.9-1.7-1.6-2.8-2c-1.1-0.5-2.4-0.7-3.7-0.7c-1.2,0-2.4,0.2-3.4,0.6c-1,0.4-2,1-2.7,1.7c-0.8,0.7-1.4,1.6-1.8,2.6
		c-0.4,1-0.6,2.1-0.6,3.2c0,1.2,0.2,2.2,0.6,3.2c0.4,1,1,1.8,1.8,2.6c0.8,0.7,1.7,1.3,2.7,1.7c1,0.4,2.2,0.6,3.4,0.6
		c1.1,0,2.2-0.2,3.4-0.5c1.1-0.3,2.1-0.8,3-1.5V7.8h-3.3v4.6c-0.2,0.1-0.5,0.2-0.7,0.3c-0.7,0.2-1.4,0.3-2.1,0.3
		c-0.7,0-1.4-0.1-2-0.4s-1.2-0.6-1.6-1c-0.5-0.5-0.8-1-1-1.6c-0.2-0.6-0.4-1.3-0.4-2c0-0.7,0.1-1.4,0.4-2S159.9,4.9,160.4,4.5z"/>
	<polygon points="192.3,0.3 188.7,0.3 188.7,9.7 181,0.3 178,0.3 178,15.9 178,15.9 181.5,15.9 181.5,6.4 189.3,15.9 192.3,15.9 	
		"/>
	<polygon points="212.6,13 204.1,13 204.1,9.4 211.3,9.4 211.3,6.6 204.1,6.6 204.1,3.2 212.3,3.2 212.3,0.3 200.5,0.3 200.5,15.9 
		212.6,15.9 	"/>
	<path d="M226.6,11.5c0.1,0,0.1,0,0.2,0l3,4.4h3.9l-3.5-5c0,0,0,0,0,0c1-0.5,1.8-1.1,2.3-1.9c0.5-0.8,0.8-1.8,0.8-3
		c0-1.2-0.3-2.2-0.8-3c-0.6-0.8-1.3-1.5-2.3-1.9c-1-0.5-2.2-0.7-3.6-0.7h-6.8v15.6h3.6v-4.4H226.6z M228.9,3.9
		c0.6,0.5,0.8,1.2,0.8,2c0,0.8-0.3,1.5-0.8,2c-0.5,0.5-1.4,0.7-2.5,0.7h-2.9V3.2h2.9C227.6,3.2,228.4,3.4,228.9,3.9z"/>
	<path d="M249.6,15.5c1-0.4,1.7-1,2.2-1.8s0.7-1.5,0.7-2.4c0-0.8-0.2-1.5-0.5-2c-0.3-0.5-0.8-1-1.3-1.3c-0.5-0.3-1.1-0.6-1.8-0.8
		c-0.6-0.2-1.3-0.4-1.9-0.5c-0.6-0.1-1.2-0.3-1.8-0.5c-0.5-0.1-1-0.3-1.3-0.6c-0.3-0.2-0.5-0.6-0.5-1c0-0.3,0.1-0.6,0.3-0.9
		s0.5-0.5,1-0.6c0.5-0.2,1-0.2,1.7-0.2c0.7,0,1.4,0.1,2.1,0.3c0.7,0.2,1.5,0.5,2.2,0.9l1.1-2.7c-0.7-0.5-1.6-0.8-2.5-1
		c-1-0.2-1.9-0.4-2.9-0.4c-1.5,0-2.7,0.2-3.7,0.7c-1,0.4-1.7,1-2.2,1.8c-0.5,0.7-0.7,1.5-0.7,2.4c0,0.8,0.2,1.5,0.5,2
		c0.3,0.5,0.8,1,1.3,1.3c0.5,0.3,1.1,0.6,1.8,0.8c0.7,0.2,1.3,0.4,1.9,0.5c0.6,0.2,1.2,0.3,1.8,0.5c0.5,0.2,1,0.3,1.3,0.6
		c0.3,0.2,0.5,0.6,0.5,1c0,0.3-0.1,0.6-0.3,0.9c-0.2,0.2-0.5,0.4-1,0.6s-1,0.2-1.7,0.2c-0.9,0-1.9-0.2-2.8-0.5
		c-0.9-0.3-1.7-0.7-2.4-1.2l-1.2,2.7c0.7,0.5,1.6,1,2.8,1.3c1.1,0.3,2.3,0.5,3.6,0.5C247.4,16.1,248.6,15.9,249.6,15.5z"/>
</g>
</svg>
